<svg width="117" height="155" viewBox="0 0 117 155" fill="none" xmlns="http://www.w3.org/2000/svg">
<path d="M64.8139 85.3375C67.4364 84.3384 69.6413 82.4776 71.0669 80.0604L75.7898 72.0519C82.1896 61.2001 98.8204 65.7388 98.8204 78.3372V97.4697C98.8204 104.303 93.2809 109.843 86.4475 109.843H67.7229C53.9846 109.843 50.4799 90.7981 63.3182 85.9073L64.8139 85.3375Z" fill="#171717"/>
<path d="M39.7446 68.6975C39.5669 71.4982 40.3465 74.276 41.9555 76.5753L47.2862 84.1927C54.5095 94.5146 43.486 107.769 32.0207 102.547L14.609 94.6172C8.39014 91.785 5.64474 84.4476 8.47696 78.2288L16.2377 61.1883C21.9318 48.6855 40.7161 53.3893 39.846 67.1001L39.7446 68.6975Z" fill="#171717"/>
<path d="M63.0765 60.5929C60.8981 58.8239 58.1829 57.8479 55.3767 57.8252L46.0796 57.75C33.4817 57.6482 29.0776 40.9812 39.9807 34.6694L56.5388 25.0839C62.4528 21.6604 70.0223 23.6792 73.4459 29.5931L82.827 45.7981C89.71 57.6879 74.9838 70.2625 64.319 61.6019L63.0765 60.5929Z" fill="#171717"/>
<path d="M6.66 132.445V146.485H3.24V132.445H6.66ZM23.3784 135.205C24.7651 135.205 25.8651 135.625 26.6784 136.465C27.5051 137.305 27.9184 138.472 27.9184 139.965V146.485H24.5184V140.425C24.5184 139.705 24.3251 139.152 23.9384 138.765C23.5651 138.365 23.0451 138.165 22.3784 138.165C21.7118 138.165 21.1851 138.365 20.7984 138.765C20.4251 139.152 20.2384 139.705 20.2384 140.425V146.485H16.8384V140.425C16.8384 139.705 16.6451 139.152 16.2584 138.765C15.8851 138.365 15.3651 138.165 14.6984 138.165C14.0318 138.165 13.5051 138.365 13.1184 138.765C12.7451 139.152 12.5584 139.705 12.5584 140.425V146.485H9.13844V135.325H12.5584V136.725C12.9051 136.258 13.3584 135.892 13.9184 135.625C14.4784 135.345 15.1118 135.205 15.8184 135.205C16.6584 135.205 17.4051 135.385 18.0584 135.745C18.7251 136.105 19.2451 136.618 19.6184 137.285C20.0051 136.672 20.5318 136.172 21.1984 135.785C21.8651 135.398 22.5918 135.205 23.3784 135.205ZM29.6303 140.885C29.6303 139.738 29.8436 138.732 30.2703 137.865C30.7103 136.998 31.3036 136.332 32.0503 135.865C32.797 135.398 33.6303 135.165 34.5503 135.165C35.337 135.165 36.0236 135.325 36.6103 135.645C37.2103 135.965 37.6703 136.385 37.9903 136.905V135.325H41.4103V146.485H37.9903V144.905C37.657 145.425 37.1903 145.845 36.5903 146.165C36.0036 146.485 35.317 146.645 34.5303 146.645C33.6236 146.645 32.797 146.412 32.0503 145.945C31.3036 145.465 30.7103 144.792 30.2703 143.925C29.8436 143.045 29.6303 142.032 29.6303 140.885ZM37.9903 140.905C37.9903 140.052 37.7503 139.378 37.2703 138.885C36.8036 138.392 36.2303 138.145 35.5503 138.145C34.8703 138.145 34.2903 138.392 33.8103 138.885C33.3436 139.365 33.1103 140.032 33.1103 140.885C33.1103 141.738 33.3436 142.418 33.8103 142.925C34.2903 143.418 34.8703 143.665 35.5503 143.665C36.2303 143.665 36.8036 143.418 37.2703 142.925C37.7503 142.432 37.9903 141.758 37.9903 140.905ZM48.1245 135.165C48.9112 135.165 49.5979 135.325 50.1845 135.645C50.7845 135.965 51.2445 136.385 51.5645 136.905V135.325H54.9845V146.465C54.9845 147.492 54.7779 148.418 54.3645 149.245C53.9645 150.085 53.3445 150.752 52.5045 151.245C51.6779 151.738 50.6445 151.985 49.4045 151.985C47.7512 151.985 46.4112 151.592 45.3845 150.805C44.3579 150.032 43.7712 148.978 43.6245 147.645H47.0045C47.1112 148.072 47.3645 148.405 47.7645 148.645C48.1645 148.898 48.6579 149.025 49.2445 149.025C49.9512 149.025 50.5112 148.818 50.9245 148.405C51.3512 148.005 51.5645 147.358 51.5645 146.465V144.885C51.2312 145.405 50.7712 145.832 50.1845 146.165C49.5979 146.485 48.9112 146.645 48.1245 146.645C47.2045 146.645 46.3712 146.412 45.6245 145.945C44.8779 145.465 44.2845 144.792 43.8445 143.925C43.4179 143.045 43.2045 142.032 43.2045 140.885C43.2045 139.738 43.4179 138.732 43.8445 137.865C44.2845 136.998 44.8779 136.332 45.6245 135.865C46.3712 135.398 47.2045 135.165 48.1245 135.165ZM51.5645 140.905C51.5645 140.052 51.3245 139.378 50.8445 138.885C50.3779 138.392 49.8045 138.145 49.1245 138.145C48.4445 138.145 47.8645 138.392 47.3845 138.885C46.9179 139.365 46.6845 140.032 46.6845 140.885C46.6845 141.738 46.9179 142.418 47.3845 142.925C47.8645 143.418 48.4445 143.665 49.1245 143.665C49.8045 143.665 50.3779 143.418 50.8445 142.925C51.3245 142.432 51.5645 141.758 51.5645 140.905ZM59.1788 134.165C58.5788 134.165 58.0854 133.992 57.6988 133.645C57.3254 133.285 57.1388 132.845 57.1388 132.325C57.1388 131.792 57.3254 131.352 57.6988 131.005C58.0854 130.645 58.5788 130.465 59.1788 130.465C59.7654 130.465 60.2454 130.645 60.6188 131.005C61.0054 131.352 61.1988 131.792 61.1988 132.325C61.1988 132.845 61.0054 133.285 60.6188 133.645C60.2454 133.992 59.7654 134.165 59.1788 134.165ZM60.8788 135.325V146.485H57.4588V135.325H60.8788ZM70.1572 135.205C71.4639 135.205 72.5039 135.632 73.2772 136.485C74.0639 137.325 74.4572 138.485 74.4572 139.965V146.485H71.0572V140.425C71.0572 139.678 70.8639 139.098 70.4772 138.685C70.0905 138.272 69.5705 138.065 68.9172 138.065C68.2639 138.065 67.7439 138.272 67.3572 138.685C66.9705 139.098 66.7772 139.678 66.7772 140.425V146.485H63.3572V135.325H66.7772V136.805C67.1239 136.312 67.5905 135.925 68.1772 135.645C68.7639 135.352 69.4239 135.205 70.1572 135.205ZM87.3537 140.725C87.3537 141.045 87.3338 141.378 87.2938 141.725H79.5538C79.6071 142.418 79.8271 142.952 80.2138 143.325C80.6138 143.685 81.1004 143.865 81.6738 143.865C82.5271 143.865 83.1204 143.505 83.4538 142.785H87.0938C86.9071 143.518 86.5671 144.178 86.0738 144.765C85.5938 145.352 84.9871 145.812 84.2538 146.145C83.5204 146.478 82.7004 146.645 81.7938 146.645C80.7004 146.645 79.7271 146.412 78.8738 145.945C78.0204 145.478 77.3538 144.812 76.8738 143.945C76.3938 143.078 76.1538 142.065 76.1538 140.905C76.1538 139.745 76.3871 138.732 76.8538 137.865C77.3338 136.998 78.0004 136.332 78.8538 135.865C79.7071 135.398 80.6871 135.165 81.7938 135.165C82.8738 135.165 83.8338 135.392 84.6738 135.845C85.5138 136.298 86.1671 136.945 86.6338 137.785C87.1138 138.625 87.3537 139.605 87.3537 140.725ZM83.8538 139.825C83.8538 139.238 83.6538 138.772 83.2538 138.425C82.8538 138.078 82.3538 137.905 81.7538 137.905C81.1804 137.905 80.6938 138.072 80.2938 138.405C79.9071 138.738 79.6671 139.212 79.5738 139.825H83.8538ZM90.758 146.645C90.158 146.645 89.6646 146.472 89.278 146.125C88.9046 145.765 88.718 145.325 88.718 144.805C88.718 144.272 88.9046 143.825 89.278 143.465C89.6646 143.105 90.158 142.925 90.758 142.925C91.3446 142.925 91.8246 143.105 92.198 143.465C92.5846 143.825 92.778 144.272 92.778 144.805C92.778 145.325 92.5846 145.765 92.198 146.125C91.8246 146.472 91.3446 146.645 90.758 146.645ZM103.543 144.005H98.3025L97.4625 146.485H93.8825L98.9625 132.445H102.923L108.003 146.485H104.383L103.543 144.005ZM102.663 141.365L100.923 136.225L99.2025 141.365H102.663ZM111.269 134.165C110.669 134.165 110.175 133.992 109.789 133.645C109.415 133.285 109.229 132.845 109.229 132.325C109.229 131.792 109.415 131.352 109.789 131.005C110.175 130.645 110.669 130.465 111.269 130.465C111.855 130.465 112.335 130.645 112.709 131.005C113.095 131.352 113.289 131.792 113.289 132.325C113.289 132.845 113.095 133.285 112.709 133.645C112.335 133.992 111.855 134.165 111.269 134.165ZM112.969 135.325V146.485H109.549V135.325H112.969Z" fill="#171717"/>
</svg>
